# xmcd
# Copyright (C) 1995-1998 Ti Kan
#
# Track frame offsets:
#       150
#       14016
#       27212
#       48510
#       69838
#
# Disc length: 1229 seconds
#
# Revision: 0
# Processed by: cddbd v1.4PL0 Copyright (c) Steve Scherf et al.
# Submitted via: CD-Transfer v1.0
#
DISCID=3904cb05
DTITLE=Groovepack - Colours
DYEAR=2003
DGENRE=
TTITLE0=Messin' With The Kid
TTITLE1=Why Me
TTITLE2=Stoop Down Baby
TTITLE3=Let's Go Stoned
TTITLE4=Don't Change Horses
EXTD=
EXTT0=
EXTT1=
EXTT2=
EXTT3=
EXTT4=
PLAYORDER=
